<svg width="48" height="48" viewBox="0 0 48 48" fill="none" xmlns="http://www.w3.org/2000/svg">
  <rect width="48" height="48" rx="5" fill="white" />
  <path d="M38.1667 10H9.83333C8.22778 10 7 11.3 7 13C7 14.7 8.22778 16 9.83333 16H38.1667C39.7722 16 41 14.7 41 13C41 11.3 39.7722 10 38.1667 10Z" fill="#FFBF1C" />
  <path d="M38.1429 21H23.8571C22.2381 21 21 22.3 21 24C21 25.7 22.2381 27 23.8571 27H38.1429C39.7619 27 41 25.7 41 24C41 22.3 39.7619 21 38.1429 21Z" fill="#F82B60" />
  <path d="M38 32C36.3 32 35 33.3 35 35C35 36.7 36.3 38 38 38C39.7 38 41 36.7 41 35C41 33.3 39.7 32 38 32Z" fill="#18BFFF" />
</svg>
