<svg width="186" height="67" viewBox="0 0 186 67" fill="none" xmlns="http://www.w3.org/2000/svg">
<path d="M44.5 37C44.2239 37 44 37.2239 44 37.5V66.5C44 66.7761 44.2239 67 44.5 67H50.5C50.7761 67 51 66.7761 51 66.5V57.5C51 57.2239 51.2239 57 51.5 57H60.5C60.7761 57 61 56.7761 61 56.5V51.5C61 51.2239 60.7761 51 60.5 51H51.5C51.2239 51 51 50.7761 51 50.5V43.5C51 43.2239 51.2239 43 51.5 43H63.5C63.7761 43 64 42.7761 64 42.5V37.5C64 37.2239 63.7761 37 63.5 37H44.5Z" fill="black"/>
<path d="M57 0H44.5C44.2239 0 44 0.223858 44 0.5V29.5C44 29.7761 44.2239 30 44.5 30H50.5C50.7761 30 51 29.7761 51 29.5V20.5C51 20.2239 51.2239 20 51.5 20H57C62.5 20 67 15.5 67 10C67 4.5 62.5 0 57 0ZM57 14H56H55H51.5C51.2239 14 51 13.7761 51 13.5V6.5C51 6.22386 51.2239 6 51.5 6H55H56H57C59.2 6 61 7.8 61 10C61 12.2 59.2 14 57 14Z" fill="black"/>
<path d="M82.5 45C82.2239 45 82 45.2239 82 45.5V45.8809C82 46.2772 81.558 46.5203 81.2088 46.3329C79.6676 45.5057 77.8699 45 76 45C69.9 45 65 49.9 65 56C65 62.1 69.9 67 76 67C77.8699 67 79.6676 66.4943 81.2088 65.6671C81.558 65.4797 82 65.7228 82 66.1191V66.5C82 66.7761 82.2239 67 82.5 67H87.5C87.7761 67 88 66.7761 88 66.5V45.5C88 45.2239 87.7761 45 87.5 45H82.5ZM76 61C73.2 61 71 58.8 71 56C71 53.2 73.2 51 76 51C78.8 51 81 53.2 81 56C81 58.8 78.8 61 76 61Z" fill="black"/>
<path d="M99 8C92.9 8 88 12.9 88 19C88 25.1 92.9 30 99 30C105.1 30 110 25.1 110 19C110 12.9 105.1 8 99 8ZM99 24C96.2 24 94 21.8 94 19C94 16.2 96.2 14 99 14C101.8 14 104 16.2 104 19C104 21.8 101.8 24 99 24Z" fill="black"/>
<path d="M114.5 8C114.224 8 114 8.22386 114 8.5V34C114 36.4 113.4 37 111 37H108H99H92.5C92.2239 37 92 37.2239 92 37.5V43V66.5C92 66.7761 92.2239 67 92.5 67H98.5C98.7761 67 99 66.7761 99 66.5V43.5C99 43.2239 99.2239 43 99.5 43H111C116.6 43 120 39.6 120 34V8.5C120 8.22386 119.776 8 119.5 8H114.5Z" fill="black"/>
<path d="M117 6C118.657 6 120 4.65685 120 3C120 1.34315 118.657 0 117 0C115.343 0 114 1.34315 114 3C114 4.65685 115.343 6 117 6Z" fill="black"/>
<path d="M77.6751 8.87553C77.3633 9.01082 77 8.79082 77 8.45097V8.45097C77 8.20191 76.7981 8 76.549 8H71.5C71.2239 8 71 8.22386 71 8.5V29.5C71 29.7761 71.2239 30 71.5 30H76.5C76.7761 30 77 29.7761 77 29.5V22C77 19.4 77.4 16 79.4 14.7C80.8424 13.7083 82.8538 13.9358 84.335 14.4298C84.5953 14.5166 84.884 14.3955 84.9882 14.1417L86.9095 9.46382C87.0146 9.20787 86.8925 8.91446 86.6323 8.82036C84.1378 7.91828 80.723 7.55277 77.6751 8.87553Z" fill="black"/>
<path d="M117.953 59.7702C117.76 59.5671 117.438 59.5654 117.22 59.7427C116.354 60.4491 115.227 60.9 114.1 60.9C111.3 60.9 109.1 58.7 109.1 55.9C109.1 53.1 111.3 50.9 114.1 50.9C115.317 50.9 116.382 51.3532 117.231 52.0626C117.443 52.2396 117.758 52.2417 117.954 52.0464L121.446 48.5536C121.642 48.3583 121.642 48.0408 121.439 47.8544C119.48 46.0626 116.917 45 114 45C107.9 45 103 49.9 103 56C103 62.1 107.9 67 114 67C116.827 67 119.477 65.9342 121.447 64.1374C121.647 63.9543 121.65 63.6431 121.463 63.4466L117.953 59.7702Z" fill="black"/>
<path d="M161.1 23.9C158.3 23.9 156.1 21.7 156.1 18.9C156.1 16.1 158.3 13.9 161.1 13.9C162.317 13.9 163.382 14.3532 164.231 15.0626C164.443 15.2396 164.758 15.2417 164.954 15.0464L168.446 11.5536C168.642 11.3583 168.642 11.0408 168.439 10.8544C166.48 9.06256 163.917 8 161 8C154.9 8 150 12.9 150 19C150 25.1 154.9 30 161 30C163.823 30 166.469 28.9372 168.438 27.1451C168.642 26.9592 168.642 26.6417 168.446 26.4464L164.912 22.9121C164.734 22.7338 164.452 22.7179 164.244 22.8603C163.393 23.4424 162.323 23.9 161.1 23.9Z" fill="black"/>
<path d="M135 45C128.9 45 124 49.9 124 56C124 62.1 128.9 67 135 67C141.1 67 146 62.1 146 56C146 49.9 141.1 45 135 45ZM135 61C132.2 61 130 58.8 130 56C130 53.2 132.2 51 135 51C137.8 51 140 53.2 140 56C140 58.8 137.8 61 135 61Z" fill="black"/>
<path d="M186 8.5C186 8.22386 185.776 8 185.5 8H182.5C182.224 8 182 7.77614 182 7.5V1.5C182 1.22386 181.776 1 181.5 1H176.5C176.224 1 176 1.22386 176 1.5V7.5C176 7.77614 175.776 8 175.5 8H172.5C172.224 8 172 8.22386 172 8.5V13.5C172 13.7761 172.224 14 172.5 14H175.5C175.776 14 176 14.2239 176 14.5V29.5C176 29.7761 176.224 30 176.5 30H181.5C181.776 30 182 29.7761 182 29.5V14.5C182 14.2239 182.224 14 182.5 14H185.5C185.776 14 186 13.7761 186 13.5V8.5Z" fill="black"/>
<path d="M146 19C146 12.9 141.1 8 135 8C128.9 8 124 12.9 124 19C124 25.1 128.9 30 135 30C137.823 30 140.469 28.9372 142.438 27.1451C142.642 26.9592 142.642 26.6417 142.446 26.4464L138.954 22.9536C138.758 22.7583 138.443 22.7603 138.229 22.9353C137.362 23.6459 136.231 24.1 135.1 24.1C133.363 24.1 131.776 23.1944 130.865 21.7765C130.669 21.4721 130.908 21.1 131.269 21.1H145.5C145.776 21.1 146 20.8761 146 20.6V19.6C146 19.3 146 19.2 146 19ZM131.169 17C130.808 17 130.569 16.6277 130.762 16.3216C131.655 14.9048 133.177 14 135 14C136.823 14 138.345 14.9048 139.238 16.3216C139.431 16.6277 139.192 17 138.831 17H137H131.169Z" fill="black"/>
<path d="M33 37H3C1.3 37 0 38.3 0 40C0 41.7 1.3 43 3 43H33C34.7 43 36 41.7 36 40C36 38.3 34.7 37 33 37Z" fill="#FFBF1C"/>
<path d="M33 49H18C16.3 49 15 50.3 15 52C15 53.7 16.3 55 18 55H33C34.7 55 36 53.7 36 52C36 50.3 34.7 49 33 49Z" fill="#F82B60"/>
<path d="M33 61C31.3 61 30 62.3 30 64C30 65.7 31.3 67 33 67C34.7 67 36 65.7 36 64C36 62.3 34.7 61 33 61Z" fill="#18BFFF"/>
<path d="M170 54.5C170 49.3 165.7 45 160.5 45C159.146 45 157.792 45.2866 156.619 45.799C156.334 45.9237 156 45.7226 156 45.4113V45.4113C156 45.1842 155.816 45 155.589 45H150.5C150.224 45 150 45.2239 150 45.5V66.5C150 66.7761 150.224 67 150.5 67H155.5C155.776 67 156 66.7761 156 66.5V54.5C156 53.2 156.8 50.5 160 50.5C163.2 50.5 164 53.2 164 54.5V66.5C164 66.7761 164.224 67 164.5 67H169.5C169.776 67 170 66.7761 170 66.5V54.5Z" fill="black"/>
</svg>
