<svg width="326" height="43" viewBox="0 0 326 43" fill="none" xmlns="http://www.w3.org/2000/svg">
  <path d="M201.5 0C201.224 0 201 0.223858 201 0.5V29.5C201 29.7761 201.224 30 201.5 30H207.5C207.776 30 208 29.7761 208 29.5V20.5C208 20.2239 208.224 20 208.5 20H217.5C217.776 20 218 19.7761 218 19.5V14.5C218 14.2239 217.776 14 217.5 14H208.5C208.224 14 208 13.7761 208 13.5V6.5C208 6.22386 208.224 6 208.5 6H220.5C220.776 6 221 5.77614 221 5.5V0.5C221 0.223858 220.776 0 220.5 0H201.5Z" fill="black" />
  <path d="M57 0H44.5C44.2239 0 44 0.223858 44 0.5V29.5C44 29.7761 44.2239 30 44.5 30H50.5C50.7761 30 51 29.7761 51 29.5V20.5C51 20.2239 51.2239 20 51.5 20H57C62.5 20 67 15.5 67 10C67 4.5 62.5 0 57 0ZM57 14H56H55H51.5C51.2239 14 51 13.7761 51 13.5V6.5C51 6.22386 51.2239 6 51.5 6H55H56H57C59.2 6 61 7.8 61 10C61 12.2 59.2 14 57 14Z" fill="black" />
  <path d="M239.5 8C239.224 8 239 8.22386 239 8.5V8.88093C239 9.27718 238.558 9.52029 238.209 9.3329C236.668 8.50571 234.87 8 233 8C226.9 8 222 12.9 222 19C222 25.1 226.9 30 233 30C234.87 30 236.668 29.4943 238.209 28.6671C238.558 28.4797 239 28.7228 239 29.1191V29.5C239 29.7761 239.224 30 239.5 30H244.5C244.776 30 245 29.7761 245 29.5V8.5C245 8.22386 244.776 8 244.5 8H239.5ZM233 24C230.2 24 228 21.8 228 19C228 16.2 230.2 14 233 14C235.8 14 238 16.2 238 19C238 21.8 235.8 24 233 24Z" fill="black" />
  <path d="M99 8C92.9 8 88 12.9 88 19C88 25.1 92.9 30 99 30C105.1 30 110 25.1 110 19C110 12.9 105.1 8 99 8ZM99 24C96.2 24 94 21.8 94 19C94 16.2 96.2 14 99 14C101.8 14 104 16.2 104 19C104 21.8 101.8 24 99 24Z" fill="black" />
  <path d="M114 34V8.5C114 8.22386 114.224 8 114.5 8H119.5C119.776 8 120 8.22386 120 8.5V34C120 39.6 116.6 43 111 43H108.5C108.224 43 108 42.7761 108 42.5V37.5C108 37.2239 108.224 37 108.5 37H111C113.4 37 114 36.4 114 34Z" fill="black" />
  <path d="M117 6C118.657 6 120 4.65685 120 3C120 1.34315 118.657 0 117 0C115.343 0 114 1.34315 114 3C114 4.65685 115.343 6 117 6Z" fill="black" />
  <path d="M77.6751 8.87553C77.3633 9.01082 77 8.79082 77 8.45097C77 8.20191 76.7981 8 76.549 8H71.5C71.2239 8 71 8.22386 71 8.5V29.5C71 29.7761 71.2239 30 71.5 30H76.5C76.7761 30 77 29.7761 77 29.5V22C77 19.4 77.4 16 79.4 14.7C80.8424 13.7083 82.8538 13.9358 84.335 14.4298C84.5953 14.5166 84.884 14.3955 84.9882 14.1417L86.9095 9.46382C87.0146 9.20787 86.8925 8.91446 86.6323 8.82036C84.1378 7.91828 80.723 7.55277 77.6751 8.87553Z" fill="black" />
  <path d="M273.953 22.7702C273.76 22.5671 273.438 22.5654 273.22 22.7427C272.354 23.4491 271.227 23.9 270.1 23.9C267.3 23.9 265.1 21.7 265.1 18.9C265.1 16.1 267.3 13.9 270.1 13.9C271.317 13.9 272.382 14.3532 273.231 15.0626C273.443 15.2396 273.758 15.2417 273.954 15.0464L277.446 11.5536C277.642 11.3583 277.642 11.0408 277.439 10.8544C275.48 9.06256 272.917 8 270 8C263.9 8 259 12.9 259 19C259 25.1 263.9 30 270 30C272.827 30 275.477 28.9342 277.447 27.1374C277.647 26.9543 277.65 26.6431 277.463 26.4466L273.953 22.7702Z" fill="black" />
  <path d="M161 24C158.2 24 156 21.8 156 19C156 16.2 158.2 14 161 14C162.217 14 163.282 14.4532 164.131 15.1626C164.343 15.3396 164.658 15.3417 164.854 15.1465L168.346 11.6536C168.542 11.4583 168.542 11.1408 168.339 10.9544C166.38 9.16256 163.817 8.10001 160.9 8.10001C154.8 8.10001 149.9 13 149.9 19.1C149.9 25.2 154.8 30.1 160.9 30.1C163.723 30.1 166.369 29.0373 168.338 27.2451C168.542 27.0592 168.542 26.7417 168.346 26.5465L164.812 23.0121C164.634 22.8338 164.352 22.8179 164.144 22.9603C163.293 23.5424 162.223 24 161 24Z" fill="black" />
  <path d="M291 8C284.9 8 280 12.9 280 19C280 25.1 284.9 30 291 30C297.1 30 302 25.1 302 19C302 12.9 297.1 8 291 8ZM291 24C288.2 24 286 21.8 286 19C286 16.2 288.2 14 291 14C293.8 14 296 16.2 296 19C296 21.8 293.8 24 291 24Z" fill="black" />
  <path d="M186 8.5C186 8.22386 185.776 8 185.5 8H182.5C182.224 8 182 7.77614 182 7.5V1.5C182 1.22386 181.776 1 181.5 1H176.5C176.224 1 176 1.22386 176 1.5V7.5C176 7.77614 175.776 8 175.5 8H172.5C172.224 8 172 8.22386 172 8.5V13.5C172 13.7761 172.224 14 172.5 14H175.5C175.776 14 176 14.2239 176 14.5V29.5C176 29.7761 176.224 30 176.5 30H181.5C181.776 30 182 29.7761 182 29.5V14.5C182 14.2239 182.224 14 182.5 14H185.5C185.776 14 186 13.7761 186 13.5V8.5Z" fill="black" />
  <path d="M146 19C146 12.9 141.1 8 135 8C128.9 8 124 12.9 124 19C124 25.1 128.9 30 135 30C137.823 30 140.469 28.9372 142.438 27.1451C142.642 26.9592 142.642 26.6417 142.446 26.4464L138.954 22.9536C138.758 22.7583 138.443 22.7603 138.229 22.9353C137.362 23.6459 136.231 24.1 135.1 24.1C133.363 24.1 131.776 23.1944 130.865 21.7765C130.669 21.4721 130.908 21.1 131.269 21.1H145.5C145.776 21.1 146 20.8761 146 20.6V19.6C146 19.3 146 19.2 146 19ZM131.169 17C130.808 17 130.569 16.6277 130.762 16.3216C131.655 14.9048 133.177 14 135 14C136.823 14 138.345 14.9048 139.238 16.3216C139.431 16.6277 139.192 17 138.831 17H137H131.169Z" fill="black" />
  <path d="M33 0H3C1.3 0 0 1.3 0 3C0 4.7 1.3 6 3 6H33C34.7 6 36 4.7 36 3C36 1.3 34.7 0 33 0Z" fill="#FFBF1C" />
  <path d="M33 12H18C16.3 12 15 13.3 15 15C15 16.7 16.3 18 18 18H33C34.7 18 36 16.7 36 15C36 13.3 34.7 12 33 12Z" fill="#F82B60" />
  <path d="M33 24C31.3 24 30 25.3 30 27C30 28.7 31.3 30 33 30C34.7 30 36 28.7 36 27C36 25.3 34.7 24 33 24Z" fill="#18BFFF" />
  <path d="M326 17.5C326 12.3 321.7 8 316.5 8C315.146 8 313.792 8.28656 312.619 8.79903C312.334 8.9237 312 8.72258 312 8.41133C312 8.18416 311.816 8 311.589 8H306.5C306.224 8 306 8.22386 306 8.5V29.5C306 29.7761 306.224 30 306.5 30H311.5C311.776 30 312 29.7761 312 29.5V17.5C312 16.2 312.8 13.5 316 13.5C319.2 13.5 320 16.2 320 17.5V29.5C320 29.7761 320.224 30 320.5 30H325.5C325.776 30 326 29.7761 326 29.5V17.5Z" fill="black" />
  <rect x="249" width="6" height="30" fill="black" />
</svg>
