<svg width="101" height="100" viewBox="0 0 101 100" fill="none" xmlns="http://www.w3.org/2000/svg">
<path d="M73.5601 47.2745L82.2828 38.5518L61.4482 17.7172L52.7255 26.4399L29.7241 3.49406C25.3905 -0.839544 18.3345 -0.839544 14.0009 3.49406L3.44466 14.0503C-0.888944 18.3839 -0.888944 25.4398 3.44466 29.7735L26.3905 52.7193L0 79.1654V100H20.8346L47.2807 73.5539L70.2265 96.4998C75.5047 101.778 82.6162 99.8333 85.9497 96.4998L96.506 85.9436C100.84 81.61 100.84 74.554 96.506 70.2204L73.5601 47.2745ZM34.3354 44.8299L11.334 21.8841L21.8347 11.3279L28.8907 18.3839L22.3347 24.9954L30.1685 32.8292L36.78 26.2177L44.8361 34.2737L34.3354 44.8299ZM78.1159 88.666L55.1701 65.7201L65.7263 55.1639L73.7823 63.22L67.1708 69.8315L75.0046 77.6653L81.6161 71.0538L88.6721 78.1098L78.1159 88.666ZM98.3949 22.4397C98.91 21.9257 99.3186 21.3151 99.5974 20.643C99.8762 19.9709 100.02 19.2504 100.02 18.5228C100.02 17.7951 99.8762 17.0746 99.5974 16.4025C99.3186 15.7304 98.91 15.1198 98.3949 14.6059L85.3941 1.60505C82.7829 -1.00622 79.1715 -0.00616068 77.5603 1.60505L67.393 11.7723L88.2277 32.607L98.3949 22.4397Z" fill="url(#paint0_linear)"/>
<defs>
<linearGradient id="paint0_linear" x1="0" y1="0" x2="109.845" y2="87.6921" gradientUnits="userSpaceOnUse">
<stop stop-color="#2D41F9"/>
<stop offset="1" stop-color="#DE85FD"/>
</linearGradient>
</defs>
</svg>
