<svg width="113" height="100" viewBox="0 0 113 100" fill="none" xmlns="http://www.w3.org/2000/svg">
<path d="M112.381 33.3333V22.2222H101.143V11.1111C101.143 5 96.0857 0 89.9048 0H11.2381C5.05714 0 0 5 0 11.1111V88.8889C0 95 5.05714 100 11.2381 100H89.9048C96.0857 100 101.143 95 101.143 88.8889V77.7778H112.381V66.6667H101.143V55.5556H112.381V44.4444H101.143V33.3333H112.381ZM89.9048 88.8889H11.2381V11.1111H89.9048V88.8889ZM22.4762 55.5556H50.5714V77.7778H22.4762V55.5556ZM56.1905 22.2222H78.6667V38.8889H56.1905V22.2222ZM22.4762 22.2222H50.5714V50H22.4762V22.2222ZM56.1905 44.4444H78.6667V77.7778H56.1905V44.4444Z" fill="url(#paint0_linear)"/>
<defs>
<linearGradient id="paint0_linear" x1="0" y1="0" x2="111.981" y2="100.446" gradientUnits="userSpaceOnUse">
<stop stop-color="#2D41F9"/>
<stop offset="1" stop-color="#DE85FD"/>
</linearGradient>
</defs>
</svg>
