<svg width="117" height="123" viewBox="0 0 117 123" fill="none" xmlns="http://www.w3.org/2000/svg">
<path d="M45.3459 40.0133L44.9113 39.8712L34.9127 36.6024C32.615 35.8531 30.1814 35.6089 27.7797 35.8866C25.378 36.1642 23.0655 36.9571 21.0015 38.2105C18.9375 39.4639 17.1712 41.1479 15.8243 43.1463C14.4774 45.1446 13.5819 47.41 13.1993 49.786C12.8167 52.162 12.9562 54.5924 13.6081 56.9096C14.26 59.2269 15.409 61.3759 16.9758 63.2087C18.5426 65.0414 20.4902 66.5141 22.6842 67.5253C24.8782 68.5365 27.2665 69.0619 29.6843 69.0654H41.1635C42.8177 69.0654 44.4046 69.7197 45.575 70.8849C46.7455 72.0503 47.4034 73.6314 47.4034 75.2804C47.4034 76.9294 46.7455 78.5104 45.575 79.6758C44.4046 80.8411 42.8177 81.4954 41.1635 81.4954H29.6836H29.6833C25.4601 81.493 21.2876 80.5785 17.4536 78.8148C13.6196 77.0511 10.2153 74.4802 7.47574 71.2794C4.73615 68.0785 2.72648 64.3238 1.5855 60.2743C0.444523 56.2249 0.199437 51.9771 0.867173 47.8241C1.53491 43.6711 3.09955 39.712 5.45303 36.2197C7.8065 32.7274 10.8928 29.7852 14.4988 27.596C18.1048 25.4067 22.1447 24.0224 26.3399 23.5386C30.3845 23.0721 34.4807 23.4532 38.3657 24.6555C42.0849 16.2656 48.5551 9.37597 56.7226 5.11952C65.0246 0.793024 74.5717 -0.547888 83.7515 1.32308C92.9314 3.19404 101.182 8.16234 107.109 15.3893C113.036 22.6164 116.277 31.6591 116.283 40.9901V40.9904C116.283 51.7337 111.996 62.0365 104.367 69.6325C96.738 77.2284 86.3913 81.4954 75.6031 81.4954C73.9488 81.4954 72.3619 80.8411 71.1916 79.6758C70.0211 78.5104 69.3631 76.9294 69.3631 75.2804C69.3631 73.6314 70.0211 72.0503 71.1916 70.8849C72.3619 69.7197 73.9487 69.0655 75.6029 69.0654L45.3459 40.0133ZM45.3459 40.0133L45.5261 39.5931M45.3459 40.0133L45.5261 39.5931M45.5261 39.5931L49.6588 29.9577C49.6589 29.9577 49.6589 29.9576 49.6589 29.9576C51.6601 25.2956 54.892 21.26 59.0118 18.2793C63.1316 15.2986 67.9855 13.4841 73.058 13.0289C78.1306 12.5736 83.2322 13.4946 87.8211 15.6939C92.4101 17.8931 96.3149 21.2885 99.1213 25.5192C101.928 29.7498 103.531 34.658 103.761 39.7226C103.991 44.7871 102.839 49.8193 100.427 54.2848C98.0161 58.7502 94.4349 62.4825 90.0641 65.085C85.6933 67.6875 80.6961 69.063 75.6031 69.0654L45.5261 39.5931ZM46.8639 89.972L54.6333 67.6358L46.8639 89.972ZM46.8639 89.972C46.5668 90.7303 46.4034 91.559 46.4034 92.4253C46.4034 93.6047 46.7063 94.7144 47.2368 95.6716C47.8726 96.8259 48.8508 97.784 50.0941 98.3613C50.3191 98.4663 50.5512 98.5578 50.7895 98.6349C51.4974 98.8659 52.2161 98.9582 52.9185 98.9261H60.9614L56.1432 112.778C56.1432 112.778 56.1432 112.778 56.1431 112.778C54.9746 116.133 56.6237 119.868 59.8695 121.102C63.1275 122.345 66.7071 120.581 67.8732 117.215L75.6426 94.8787C75.9397 94.1204 76.1031 93.2917 76.1031 92.4253C76.1031 90.7875 75.5208 89.2848 74.5566 88.1371C74.3948 87.9442 74.2214 87.7607 74.037 87.5877C73.0026 86.6159 71.653 85.9989 70.1609 85.9261C70.0351 85.9197 69.9095 85.9173 69.7844 85.9189H61.5471L66.3633 72.073C66.3633 72.0729 66.3633 72.0729 66.3633 72.0728C67.5319 68.7175 65.8828 64.9824 62.637 63.749C59.3792 62.5053 55.7998 64.2699 54.6335 67.6352L46.8639 89.972Z" fill="url(#paint0_linear)" stroke="url(#paint1_linear)"/>
<defs>
<linearGradient id="paint0_linear" x1="1" y1="1" x2="131.394" y2="100.551" gradientUnits="userSpaceOnUse">
<stop stop-color="#2D41F9"/>
<stop offset="1" stop-color="#DE85FD"/>
</linearGradient>
<linearGradient id="paint1_linear" x1="1" y1="1" x2="131.394" y2="100.551" gradientUnits="userSpaceOnUse">
<stop stop-color="#2D41F9"/>
<stop offset="1" stop-color="#DE85FD"/>
</linearGradient>
</defs>
</svg>
