<svg id="Layer_1" data-name="Layer 1" xmlns="http://www.w3.org/2000/svg" viewBox="0 0 4978.65 218">
  <defs>
    <style>
      .cls-1 {
        fill: #f3f3f3;
      }
    </style>
  </defs>
  <title>Lines</title>
  <g>
    <path class="cls-1" d="M2110.37-1050.93a1,1,0,0,0,1-1,1,1,0,0,0-1-1h-4599.7v2Z" transform="translate(2489.33 1052.93)"/>
    <path class="cls-1" d="M2469.58-994.93a1,1,0,0,0,1-1,1,1,0,0,0-1-1H-2489.33v2Z" transform="translate(2489.33 1052.93)"/>
    <path class="cls-1" d="M2454-938.93a1,1,0,0,0,1-1,1,1,0,0,0-1-1h-4943.3v2Z" transform="translate(2489.33 1052.93)"/>
    <path class="cls-1" d="M2329-882.93a1,1,0,0,0,1-1,1,1,0,0,0-1-1H-2489.33v2Z" transform="translate(2489.33 1052.93)"/>
    <path class="cls-1" d="M2250.93-1042.93a1,1,0,0,0,1-1,1,1,0,0,0-1-1H-2489.33v2Z" transform="translate(2489.33 1052.93)"/>
    <path class="cls-1" d="M2461.77-986.93a1,1,0,0,0,1-1,1,1,0,0,0-1-1h-4951.1v2Z" transform="translate(2489.33 1052.93)"/>
    <path class="cls-1" d="M2479-930.93a1,1,0,0,0,1-1,1,1,0,0,0-1-1H-2489.33v2Z" transform="translate(2489.33 1052.93)"/>
    <path class="cls-1" d="M2266.55-874.93a1,1,0,0,0,1-1,1,1,0,0,0-1-1H-2489.33v2Z" transform="translate(2489.33 1052.93)"/>
    <path class="cls-1" d="M2297.79-1034.93a1,1,0,0,0,1-1,1,1,0,0,0-1-1H-2489.33v2Z" transform="translate(2489.33 1052.93)"/>
    <path class="cls-1" d="M2452.4-978.93a1,1,0,0,0,1-1,1,1,0,0,0-1-1H-2489.33v2Z" transform="translate(2489.33 1052.93)"/>
    <path class="cls-1" d="M2488.33-924.93H-2489.33v2H2488.33a1,1,0,0,0,1-1A1,1,0,0,0,2488.33-924.93Z" transform="translate(2489.33 1052.93)"/>
    <path class="cls-1" d="M2255.62-866.93a1,1,0,0,0,1-1,1,1,0,0,0-1-1H-2489.33v2Z" transform="translate(2489.33 1052.93)"/>
    <path class="cls-1" d="M2344.64-1026.93a1,1,0,0,0,1-1,1,1,0,0,0-1-1h-4834v2Z" transform="translate(2489.33 1052.93)"/>
    <path class="cls-1" d="M2438.35-970.93a1,1,0,0,0,1-1,1,1,0,0,0-1-1H-2489.33v2Z" transform="translate(2489.33 1052.93)"/>
    <path class="cls-1" d="M2485.2-914.93a1,1,0,0,0,1-1,1,1,0,0,0-1-1H-2489.33v2Z" transform="translate(2489.33 1052.93)"/>
    <path class="cls-1" d="M2235.31-858.93a1,1,0,0,0,1-1,1,1,0,0,0-1-1H-2489.33v2Z" transform="translate(2489.33 1052.93)"/>
    <path class="cls-1" d="M2375.88-1018.93a1,1,0,0,0,1-1,1,1,0,0,0-1-1H-2489.33v2Z" transform="translate(2489.33 1052.93)"/>
    <path class="cls-1" d="M2410.24-962.93a1,1,0,0,0,1-1,1,1,0,0,0-1-1H-2489.33v2Z" transform="translate(2489.33 1052.93)"/>
    <path class="cls-1" d="M2480.52-906.93a1,1,0,0,0,1-1,1,1,0,0,0-1-1H-2489.33v2Z" transform="translate(2489.33 1052.93)"/>
    <path class="cls-1" d="M2110.37-850.93a1,1,0,0,0,1-1,1,1,0,0,0-1-1h-4599.7v2Z" transform="translate(2489.33 1052.93)"/>
    <path class="cls-1" d="M2422.73-1010.93a1,1,0,0,0,1-1,1,1,0,0,0-1-1H-2489.33v2Z" transform="translate(2489.33 1052.93)"/>
    <path class="cls-1" d="M2405.55-954.93a1,1,0,0,0,1-1,1,1,0,0,0-1-1H-2489.33v2Z" transform="translate(2489.33 1052.93)"/>
    <path class="cls-1" d="M2469.58-898.93a1,1,0,0,0,1-1,1,1,0,0,0-1-1H-2489.33v2Z" transform="translate(2489.33 1052.93)"/>
    <path class="cls-1" d="M2032.28-842.93a1,1,0,0,0,1-1,1,1,0,0,0-1-1H-2489.33v2Z" transform="translate(2489.33 1052.93)"/>
    <path class="cls-1" d="M2461.77-1002.93a1,1,0,0,0,1-1,1,1,0,0,0-1-1h-4951.1v2Z" transform="translate(2489.33 1052.93)"/>
    <path class="cls-1" d="M2422.73-946.93a1,1,0,0,0,1-1,1,1,0,0,0-1-1H-2489.33v2Z" transform="translate(2489.33 1052.93)"/>
    <path class="cls-1" d="M2422.73-890.93a1,1,0,0,0,1-1,1,1,0,0,0-1-1H-2489.33v2Z" transform="translate(2489.33 1052.93)"/>
    <path class="cls-1" d="M1938.57-834.93a1,1,0,0,0,1-1,1,1,0,0,0-1-1h-4427.9v2Z" transform="translate(2489.33 1052.93)"/>
  </g>
</svg>
