<svg width="292" height="218" viewBox="0 0 292 218" fill="none" xmlns="http://www.w3.org/2000/svg">
<path d="M1662.55 1C1662.55 0.447715 1662.1 0 1661.55 0H463.989C463.437 0 462.989 0.447715 462.989 1C462.989 1.55228 463.437 2 463.989 2H1661.55C1662.1 2 1662.55 1.55228 1662.55 1Z" fill="#1D1D1D" fill-opacity="0.05"/>
<path d="M1222.52 57C1222.52 56.4477 1222.07 56 1221.52 56H23.9581C23.4059 56 22.9581 56.4477 22.9581 57C22.9581 57.5523 23.4059 58 23.9581 58H1221.52C1222.07 58 1222.52 57.5523 1222.52 57Z" fill="#1D1D1D" fill-opacity="0.05"/>
<path d="M1241.65 113C1241.65 112.448 1241.2 112 1240.65 112H43.0899C42.5377 112 42.0899 112.448 42.0899 113C42.0899 113.552 42.5377 114 43.0899 114H1240.65C1241.2 114 1241.65 113.552 1241.65 113Z" fill="#1D1D1D" fill-opacity="0.05"/>
<path d="M1394.71 169C1394.71 168.448 1394.26 168 1393.71 168H196.144C195.592 168 195.144 168.448 195.144 169C195.144 169.552 195.592 170 196.144 170H1393.71C1394.26 170 1394.71 169.552 1394.71 169Z" fill="#1D1D1D" fill-opacity="0.05"/>
<path d="M1490.36 9C1490.36 8.44772 1489.92 8 1489.36 8H291.803C291.251 8 290.803 8.44772 290.803 9C290.803 9.55228 291.251 10 291.803 10H1489.36C1489.92 10 1490.36 9.55228 1490.36 9Z" fill="#1D1D1D" fill-opacity="0.05"/>
<path d="M1232.09 65C1232.09 64.4477 1231.64 64 1231.09 64H33.524C32.9718 64 32.524 64.4477 32.524 65C32.524 65.5523 32.9718 66 33.524 66H1231.09C1231.64 66 1232.09 65.5523 1232.09 65Z" fill="#1D1D1D" fill-opacity="0.05"/>
<path d="M1211.04 121C1211.04 120.448 1210.59 120 1210.04 120H12.4791C11.9268 120 11.4791 120.448 11.4791 121C11.4791 121.552 11.9268 122 12.4791 122H1210.04C1210.59 122 1211.04 121.552 1211.04 121Z" fill="#1D1D1D" fill-opacity="0.05"/>
<path d="M1471.23 177C1471.23 176.448 1470.79 176 1470.23 176H272.671C272.119 176 271.671 176.448 271.671 177C271.671 177.552 272.119 178 272.671 178H1470.23C1470.79 178 1471.23 177.552 1471.23 177Z" fill="#1D1D1D" fill-opacity="0.05"/>
<path d="M1432.97 17C1432.97 16.4477 1432.52 16 1431.97 16H234.408C233.855 16 233.408 16.4477 233.408 17C233.408 17.5523 233.855 18 234.408 18H1431.97C1432.52 18 1432.97 17.5523 1432.97 17Z" fill="#1D1D1D" fill-opacity="0.05"/>
<path d="M1243.56 73C1243.56 72.4477 1243.12 72 1242.56 72H45.0031C44.4509 72 44.0031 72.4477 44.0031 73C44.0031 73.5523 44.4509 74 45.0031 74H1242.56C1243.12 74 1243.56 73.5523 1243.56 73Z" fill="#1D1D1D" fill-opacity="0.05"/>
<path d="M1199.56 129C1199.56 128.448 1199.11 128 1198.56 128H1C0.447754 128 0 128.448 0 129C0 129.552 0.447754 130 1 130H1198.56C1199.11 130 1199.56 129.552 1199.56 129Z" fill="#1D1D1D" fill-opacity="0.05"/>
<path d="M1484.63 185C1484.63 184.448 1484.18 184 1483.63 184H286.063C285.511 184 285.063 184.448 285.063 185C285.063 185.552 285.511 186 286.063 186H1483.63C1484.18 186 1484.63 185.552 1484.63 185Z" fill="#1D1D1D" fill-opacity="0.05"/>
<path d="M1375.57 25C1375.57 24.4477 1375.13 24 1374.57 24H177.012C176.46 24 176.012 24.4477 176.012 25C176.012 25.5523 176.46 26 177.012 26H1374.57C1375.13 26 1375.57 25.5523 1375.57 25Z" fill="#1D1D1D" fill-opacity="0.05"/>
<path d="M1260.78 81C1260.78 80.4477 1260.34 80 1259.78 80H62.2217C61.6694 80 61.2217 80.4477 61.2217 81C61.2217 81.5523 61.6694 82 62.2217 82H1259.78C1260.34 82 1260.78 81.5523 1260.78 81Z" fill="#1D1D1D" fill-opacity="0.05"/>
<path d="M1203.39 137C1203.39 136.448 1202.94 136 1202.39 136H4.82635C4.27411 136 3.82635 136.448 3.82635 137C3.82635 137.552 4.27411 138 4.82635 138H1202.39C1202.94 138 1203.39 137.552 1203.39 137Z" fill="#1D1D1D" fill-opacity="0.05"/>
<path d="M1509.5 193C1509.5 192.448 1509.05 192 1508.5 192H310.935C310.382 192 309.935 192.448 309.935 193C309.935 193.552 310.382 194 310.935 194H1508.5C1509.05 194 1509.5 193.552 1509.5 193Z" fill="#1D1D1D" fill-opacity="0.05"/>
<path d="M1337.31 33C1337.31 32.4477 1336.86 32 1336.31 32H138.749C138.197 32 137.749 32.4477 137.749 33C137.749 33.5523 138.197 34 138.749 34H1336.31C1336.86 34 1337.31 33.5523 1337.31 33Z" fill="#1D1D1D" fill-opacity="0.05"/>
<path d="M1295.22 89C1295.22 88.4477 1294.77 88 1294.22 88H96.6589C96.1066 88 95.6589 88.4477 95.6589 89C95.6589 89.5523 96.1066 90 96.6589 90H1294.22C1294.77 90 1295.22 89.5523 1295.22 89Z" fill="#1D1D1D" fill-opacity="0.05"/>
<path d="M1209.13 145C1209.13 144.448 1208.68 144 1208.13 144H10.5659C10.0137 144 9.56592 144.448 9.56592 145C9.56592 145.552 10.0137 146 10.5659 146H1208.13C1208.68 146 1209.13 145.552 1209.13 145Z" fill="#1D1D1D" fill-opacity="0.05"/>
<path d="M1662.55 201C1662.55 200.448 1662.1 200 1661.55 200H463.989C463.437 200 462.989 200.448 462.989 201C462.989 201.552 463.437 202 463.989 202H1661.55C1662.1 202 1662.55 201.552 1662.55 201Z" fill="#1D1D1D" fill-opacity="0.05"/>
<path d="M1279.92 41C1279.92 40.4477 1279.47 40 1278.92 40H81.3535C80.8012 40 80.3535 40.4477 80.3535 41C80.3535 41.5523 80.8012 42 81.3535 42H1278.92C1279.47 42 1279.92 41.5523 1279.92 41Z" fill="#1D1D1D" fill-opacity="0.05"/>
<path d="M1300.96 97C1300.96 96.4477 1300.51 96 1299.96 96H102.398C101.846 96 101.398 96.4477 101.398 97C101.398 97.5523 101.846 98 102.398 98H1299.96C1300.51 98 1300.96 97.5523 1300.96 97Z" fill="#1D1D1D" fill-opacity="0.05"/>
<path d="M1222.52 153C1222.52 152.448 1222.07 152 1221.52 152H23.9581C23.4059 152 22.9581 152.448 22.9581 153C22.9581 153.552 23.4059 154 23.9581 154H1221.52C1222.07 154 1222.52 153.552 1222.52 153Z" fill="#1D1D1D" fill-opacity="0.05"/>
<path d="M1758.21 209C1758.21 208.448 1757.76 208 1757.21 208H559.648C559.095 208 558.648 208.448 558.648 209C558.648 209.552 559.095 210 559.648 210H1757.21C1757.76 210 1758.21 209.552 1758.21 209Z" fill="#1D1D1D" fill-opacity="0.05"/>
<path d="M1232.09 49C1232.09 48.4477 1231.64 48 1231.09 48H33.524C32.9718 48 32.524 48.4477 32.524 49C32.524 49.5523 32.9718 50 33.524 50H1231.09C1231.64 50 1232.09 49.5523 1232.09 49Z" fill="#1D1D1D" fill-opacity="0.05"/>
<path d="M1279.92 105C1279.92 104.448 1279.47 104 1278.92 104H81.3535C80.8012 104 80.3535 104.448 80.3535 105C80.3535 105.552 80.8012 106 81.3535 106H1278.92C1279.47 106 1279.92 105.552 1279.92 105Z" fill="#1D1D1D" fill-opacity="0.05"/>
<path d="M1279.92 161C1279.92 160.448 1279.47 160 1278.92 160H81.3535C80.8012 160 80.3535 160.448 80.3535 161C80.3535 161.552 80.8012 162 81.3535 162H1278.92C1279.47 162 1279.92 161.552 1279.92 161Z" fill="#1D1D1D" fill-opacity="0.05"/>
<path d="M1873 217C1873 216.448 1872.55 216 1872 216H674.438C673.886 216 673.438 216.448 673.438 217C673.438 217.552 673.886 218 674.438 218H1872C1872.55 218 1873 217.552 1873 217Z" fill="#1D1D1D" fill-opacity="0.05"/>
</svg>
