<svg width="333" height="218" viewBox="0 0 333 218" fill="none" xmlns="http://www.w3.org/2000/svg">
<rect x="-664.989" y="56" width="979.247" height="2" rx="1" fill="#1D1D1D" fill-opacity="0.05"/>
<rect x="-680.607" y="112" width="979.247" height="2" rx="1" fill="#1D1D1D" fill-opacity="0.05"/>
<rect x="-805.551" y="168" width="979.247" height="2" rx="1" fill="#1D1D1D" fill-opacity="0.05"/>
<rect x="-883.64" y="8" width="979.247" height="2" rx="1" fill="#1D1D1D" fill-opacity="0.05"/>
<rect x="-672.798" y="64" width="979.247" height="2" rx="1" fill="#1D1D1D" fill-opacity="0.05"/>
<rect x="-655.618" y="120" width="979.247" height="2" rx="1" fill="#1D1D1D" fill-opacity="0.05"/>
<rect x="-868.022" y="176" width="979.247" height="2" rx="1" fill="#1D1D1D" fill-opacity="0.05"/>
<rect x="-836.786" y="16" width="979.247" height="2" rx="1" fill="#1D1D1D" fill-opacity="0.05"/>
<rect x="-682.168" y="72" width="979.247" height="2" rx="1" fill="#1D1D1D" fill-opacity="0.05"/>
<rect x="-646.247" y="128" width="979.247" height="2" rx="1" fill="#1D1D1D" fill-opacity="0.05"/>
<rect x="-878.955" y="184" width="979.247" height="2" rx="1" fill="#1D1D1D" fill-opacity="0.05"/>
<rect x="-789.933" y="24" width="979.247" height="2" rx="1" fill="#1D1D1D" fill-opacity="0.05"/>
<rect x="-696.225" y="80" width="979.247" height="2" rx="1" fill="#1D1D1D" fill-opacity="0.05"/>
<rect x="-649.371" y="136" width="979.247" height="2" rx="1" fill="#1D1D1D" fill-opacity="0.05"/>
<rect x="-899.258" y="192" width="979.247" height="2" rx="1" fill="#1D1D1D" fill-opacity="0.05"/>
<rect x="-758.697" y="32" width="979.247" height="2" rx="1" fill="#1D1D1D" fill-opacity="0.05"/>
<rect x="-724.337" y="88" width="979.247" height="2" rx="1" fill="#1D1D1D" fill-opacity="0.05"/>
<rect x="-654.056" y="144" width="979.247" height="2" rx="1" fill="#1D1D1D" fill-opacity="0.05"/>
<rect x="-711.843" y="40" width="979.247" height="2" rx="1" fill="#1D1D1D" fill-opacity="0.05"/>
<rect x="-729.022" y="96" width="979.247" height="2" rx="1" fill="#1D1D1D" fill-opacity="0.05"/>
<rect x="-664.989" y="152" width="979.247" height="2" rx="1" fill="#1D1D1D" fill-opacity="0.05"/>
<rect x="-672.798" y="48" width="979.247" height="2" rx="1" fill="#1D1D1D" fill-opacity="0.05"/>
<rect x="-711.843" y="104" width="979.247" height="2" rx="1" fill="#1D1D1D" fill-opacity="0.05"/>
<rect x="-711.843" y="160" width="979.247" height="2" rx="1" fill="#1D1D1D" fill-opacity="0.05"/>
</svg>
