<?xml version="1.0" standalone="no"?>
<!DOCTYPE svg PUBLIC "-//W3C//DTD SVG 20010904//EN"
 "http://www.w3.org/TR/2001/REC-SVG-20010904/DTD/svg10.dtd">
<svg version="1.0" xmlns="http://www.w3.org/2000/svg"
 width="864.000000pt" height="864.000000pt" viewBox="0 0 864.000000 864.000000"
 preserveAspectRatio="xMidYMid meet">
<metadata>
Created by potrace 1.11, written by Peter Selinger 2001-2013
</metadata>
<g transform="translate(0.000000,864.000000) scale(0.100000,-0.100000)"
fill="#000000" stroke="none">
<path d="M525 7976 c-127 -35 -230 -94 -319 -182 -53 -53 -146 -189 -146 -214
0 -9 -4 -20 -9 -25 -23 -27 -45 -146 -47 -260 -1 -66 1 -124 4 -130 4 -5 7
-14 7 -20 6 -73 64 -209 126 -293 86 -116 239 -218 389 -259 62 -17 255 -18
3745 -18 2024 0 3700 4 3725 8 25 4 54 11 65 16 11 4 47 19 80 31 33 13 67 29
76 36 8 8 19 14 23 14 19 0 112 82 177 157 25 28 106 169 108 186 0 4 7 31 15
60 8 28 18 72 22 97 6 44 7 180 1 210 -23 107 -35 147 -67 216 -21 44 -46 86
-54 93 -9 8 -16 17 -16 21 0 13 -91 104 -144 144 -42 31 -119 74 -151 82 -5 2
-37 14 -70 26 l-60 23 -3700 1 -3700 2 -80 -22z"/>
<path d="M4236 5142 c-2 -1 -23 -4 -48 -7 -65 -8 -85 -12 -142 -31 -45 -15
-71 -28 -160 -78 -26 -14 -81 -62 -124 -106 -205 -214 -248 -562 -103 -840 29
-55 98 -146 139 -182 87 -77 235 -153 321 -165 20 -2 43 -7 51 -11 23 -9 3780
-9 3786 0 3 5 9 6 13 4 23 -15 198 47 286 101 43 27 171 143 157 143 -4 0 0 6
8 13 21 16 81 115 95 157 1 3 7 17 13 33 7 15 14 38 17 50 37 165 37 264 0
405 -17 67 -91 222 -106 222 -5 0 -9 5 -9 12 0 15 -126 137 -166 161 -90 54
-194 97 -207 85 -2 -2 -10 2 -18 9 -8 6 -43 14 -79 18 -57 7 -3718 14 -3724 7z"/>
<path d="M7807 2284 c-1 -1 -22 -4 -47 -7 -116 -12 -252 -67 -344 -140 -202
-158 -301 -412 -264 -678 14 -105 79 -258 141 -333 41 -50 107 -116 115 -116
4 0 20 -11 36 -25 101 -87 357 -151 500 -124 22 4 57 10 76 13 112 17 245 91
345 191 111 111 179 247 201 405 6 42 6 165 0 200 -14 85 -19 107 -27 122 -5
9 -9 25 -9 36 0 11 -7 25 -15 32 -9 7 -13 15 -11 17 2 3 -12 32 -32 66 -101
175 -288 299 -499 333 -39 6 -161 12 -166 8z"/>
</g>
</svg>
